<svg width="16" height="16" viewBox="0 0 16 16" fill="none" xmlns="http://www.w3.org/2000/svg">
<rect width="16" height="16" rx="8" fill="white"/>
<path d="M4.04315 12V6.54545H5.48491V7.50781H5.54883C5.66246 7.18821 5.85186 6.93608 6.11701 6.75142C6.38216 6.56676 6.6994 6.47443 7.06871 6.47443C7.44277 6.47443 7.76119 6.56795 8.02397 6.75497C8.28675 6.93963 8.46194 7.19058 8.54954 7.50781H8.60636C8.71763 7.19531 8.91886 6.94555 9.21005 6.75852C9.50361 6.56913 9.85044 6.47443 10.2505 6.47443C10.7595 6.47443 11.1726 6.6366 11.4899 6.96094C11.8095 7.28291 11.9693 7.73982 11.9693 8.33168V12H10.46V8.62997C10.46 8.32694 10.3796 8.09967 10.2186 7.94815C10.0576 7.79664 9.85636 7.72088 9.61488 7.72088C9.34026 7.72088 9.12601 7.80848 8.97212 7.98366C8.81824 8.15649 8.7413 8.38494 8.7413 8.66903V12H7.27468V8.59801C7.27468 8.33049 7.19774 8.11742 7.04386 7.95881C6.89234 7.80019 6.69229 7.72088 6.44371 7.72088C6.27563 7.72088 6.12411 7.76349 5.98917 7.84872C5.85659 7.93158 5.75124 8.04877 5.67312 8.20028C5.59499 8.34943 5.55593 8.52462 5.55593 8.72585V12H4.04315Z" fill="#2F3542"/>
</svg>
